<?xml version="1.0" encoding="utf-8"?><svg xmlns="http://www.w3.org/2000/svg" xmlns:xlink="http://www.w3.org/1999/xlink">
	<symbol viewBox="0 0 31 14" id="applepay">
		<path d="M5.833 2.353c-.352.423-.914.757-1.477.71-.07-.572.205-1.18.527-1.555.352-.435.967-.745 1.465-.769.059.596-.17 1.18-.515 1.615zm.51.823c-.815-.048-1.512.47-1.899.47-.393 0-.984-.447-1.629-.435-.838.012-1.617.495-2.045 1.263-.879 1.537-.228 3.813.621 5.064.416.62.914 1.298 1.57 1.274.622-.023.868-.41 1.618-.41.756 0 .972.41 1.629.399.68-.012 1.107-.62 1.523-1.24.475-.702.668-1.387.68-1.423-.012-.012-1.313-.518-1.324-2.043-.012-1.275 1.025-1.883 1.072-1.919-.586-.881-1.5-.977-1.817-1zm4.705-1.728v9.287h1.418V7.56h1.963c1.792 0 3.052-1.251 3.052-3.062 0-1.81-1.236-3.05-3.006-3.05h-3.427zm1.418 1.215H14.1c1.23 0 1.934.667 1.934 1.841s-.703 1.847-1.94 1.847h-1.628V2.663zm7.605 8.144c.89 0 1.717-.46 2.092-1.186h.03v1.114h1.312V6.112c0-1.34-1.055-2.204-2.678-2.204-1.506 0-2.62.876-2.66 2.08h1.277c.106-.573.627-.948 1.342-.948.867 0 1.353.411 1.353 1.168v.512l-1.77.107c-1.646.102-2.536.787-2.536 1.978 0 1.203.92 2.002 2.238 2.002zm.38-1.102c-.755 0-1.235-.37-1.235-.936 0-.584.462-.923 1.347-.977l1.576-.101v.524c0 .87-.726 1.49-1.687 1.49zm4.806 3.556c1.383 0 2.033-.536 2.601-2.162l2.49-7.101h-1.44l-1.67 5.486h-.03l-1.67-5.486h-1.483l2.403 6.76-.13.412c-.216.697-.567.965-1.194.965-.112 0-.329-.012-.416-.024v1.114c.082.024.433.036.539.036z" />
	</symbol>
	<symbol viewBox="0 0 9 5" id="arrow-down">
		<path d="M4.675 4.998a.854.854 0 01-.592-.242L.75 1.423A.83.83 0 111.924.248l2.743 2.741L7.41.247a.83.83 0 111.175 1.175L5.251 4.756a.787.787 0 01-.576.242z" />
	</symbol>
	<symbol viewBox="0 0 55 16" id="arrow-long">
		<path d="M54.354 8.354a.5.5 0 000-.708l-3.182-3.182a.5.5 0 10-.707.708L53.293 8l-2.828 2.828a.5.5 0 10.707.708l3.182-3.182zM1.929 8.5a.5.5 0 000-1v1zm3.857-1a.5.5 0 000 1v-1zm3.857 1a.5.5 0 100-1v1zm3.857-1a.5.5 0 000 1v-1zm3.857 1a.5.5 0 100-1v1zm3.857-1a.5.5 0 100 1v-1zm3.857 1a.5.5 0 100-1v1zm3.858-1a.5.5 0 100 1v-1zm3.857 1a.5.5 0 100-1v1zm3.857-1a.5.5 0 100 1v-1zm3.857 1a.5.5 0 000-1v1zm3.857-1a.5.5 0 000 1v-1zm3.857 1a.5.5 0 000-1v1zm3.857-1a.5.5 0 000 1v-1zM0 8.5h1.929v-1H0v1zm5.786 0h3.857v-1H5.786v1zm7.714 0h3.857v-1H13.5v1zm7.714 0h3.857v-1h-3.857v1zm7.715 0h3.857v-1h-3.857v1zm7.714 0H40.5v-1h-3.857v1zm7.714 0h3.857v-1h-3.857v1zm7.714 0H54v-1h-1.929v1zm2.636.207a1 1 0 000-1.414L48.343.929a1 1 0 00-1.414 1.414L52.586 8l-5.657 5.657a1 1 0 001.414 1.414l6.364-6.364zM1.93 9a1 1 0 100-2v2zm3.857-2a1 1 0 000 2V7zm3.857 2a1 1 0 000-2v2zM13.5 7a1 1 0 100 2V7zm3.857 2a1 1 0 100-2v2zm3.857-2a1 1 0 100 2V7zm3.857 2a1 1 0 100-2v2zm3.858-2a1 1 0 100 2V7zm3.857 2a1 1 0 100-2v2zm3.857-2a1 1 0 100 2V7zM40.5 9a1 1 0 100-2v2zm3.857-2a1 1 0 000 2V7zm3.857 2a1 1 0 100-2v2zm3.857-2a1 1 0 100 2V7zM0 9h1.929V7H0v2zm5.786 0h3.857V7H5.786v2zM13.5 9h3.857V7H13.5v2zm7.714 0h3.857V7h-3.857v2zm7.715 0h3.857V7h-3.857v2zm7.714 0H40.5V7h-3.857v2zm7.714 0h3.857V7h-3.857v2zm7.714 0H54V7h-1.929v2z" />
	</symbol>
	<symbol viewBox="0 0 25 18" id="burger">
		<path fill-rule="evenodd" clip-rule="evenodd" d="M25 0H0v2h25V0zM0 8h25v2H0V8zm0 8h25v2H0v-2z" />
	</symbol>
	<symbol viewBox="0 0 32 40" id="calc">
		<path fill-rule="evenodd" clip-rule="evenodd" d="M0 6a6 6 0 016-6h20a6 6 0 016 6v28a6 6 0 01-6 6H6a6 6 0 01-6-6V6zm6-2a2 2 0 00-2 2v28a2 2 0 002 2h20a2 2 0 002-2V6a2 2 0 00-2-2H6z" />
		<path d="M8 24a2 2 0 114 0 2 2 0 01-4 0zm0 6a2 2 0 114 0 2 2 0 01-4 0zm6-6a2 2 0 114 0 2 2 0 01-4 0zm0 6a2 2 0 114 0 2 2 0 01-4 0zm6-6a2 2 0 114 0 2 2 0 01-4 0zm0 6a2 2 0 114 0 2 2 0 01-4 0zM8 10a2 2 0 012-2h12a2 2 0 012 2v2a2 2 0 01-2 2H10a2 2 0 01-2-2v-2z" />
	</symbol>
	<symbol viewBox="0 0 44 38" id="camera">
		<path d="M16 4a2 2 0 00-2 2 2 2 0 01-2 2H6a2 2 0 00-2 2v22a2 2 0 002 2h32a2 2 0 002-2V10a2 2 0 00-2-2h-6a2 2 0 01-2-2 2 2 0 00-2-2H16zm-5.658 0A6 6 0 0116 0h12a6 6 0 015.658 4H38a6 6 0 016 6v22a6 6 0 01-6 6H6a6 6 0 01-6-6V10a6 6 0 016-6h4.342zM22 14a6 6 0 100 12 6 6 0 000-12zm-10 6a10 10 0 1120 0 10 10 0 01-20 0zm26-8a2 2 0 11-4 0 2 2 0 014 0z" />
	</symbol>
	<symbol viewBox="0 0 40 28" id="card">
		<path d="M34 0H6C2.7 0 0 2.7 0 6v16c0 3.3 2.7 6 6 6h28c3.3 0 6-2.7 6-6V6c0-3.3-2.7-6-6-6zM6 4h28c1.1 0 2 .9 2 2v2H4V6c0-1.1.9-2 2-2zm28 20H6c-1.1 0-2-.9-2-2V12h32v10c0 1.1-.9 2-2 2zm-18-4h-6c-1.1 0-2-.9-2-2s.9-2 2-2h6c1.1 0 2 .9 2 2s-.9 2-2 2z" />
	</symbol>
	<symbol viewBox="0 0 24 24" id="clock">
		<path d="M12 22C6.49 22 2 17.51 2 12S6.49 2 12 2s10 4.49 10 10-4.49 10-10 10zm0-18c-4.41 0-8 3.59-8 8s3.59 8 8 8 8-3.59 8-8-3.59-8-8-8zm3.83 10.55c.31-.46.18-1.08-.28-1.39L13 11.46V7c0-.55-.45-1-1-1s-1 .45-1 1v5c0 .33.17.65.45.83l3 2c.46.31 1.08.18 1.38-.28z" />
	</symbol>
	<symbol viewBox="0 0 10 19" id="fb">
		<path d="M8.865 8.9H6.44v9.36h-3.6V8.9H.68V6.02h2.16V4.283C2.841 1.758 3.89.26 6.866.26H9.32v2.88H7.673c-1.158 0-1.233.432-1.233 1.24v1.64h2.88L8.865 8.9z" />
	</symbol>
	<symbol viewBox="0 0 40 40" id="gear">
		<path d="M20 28c-4.42 0-8-3.58-8-8s3.58-8 8-8 8 3.58 8 8-3.58 8-8 8zm0-12c-2.2 0-4 1.8-4 4s1.8 4 4 4 4-1.8 4-4-1.8-4-4-4zm3 24h-5.92c-.86 0-1.62-.56-1.9-1.36l-1.28-3.82-3.62 1.8c-.76.38-1.7.24-2.3-.38l-4.2-4.18c-.62-.6-.76-1.54-.38-2.32l1.8-3.58-3.84-1.28A1.957 1.957 0 010 23v-5.92c0-.86.56-1.62 1.36-1.9l3.82-1.28-1.8-3.62c-.4-.76-.24-1.68.36-2.3l4.18-4.2c.62-.62 1.54-.76 2.32-.38l3.58 1.8 1.28-3.84A2 2 0 0117 0h5.92c.86 0 1.62.56 1.9 1.36l1.28 3.82 3.62-1.8c.76-.38 1.7-.24 2.3.38l4.2 4.18c.62.6.76 1.54.38 2.32l-1.8 3.58 3.84 1.28c.82.26 1.36 1.02 1.36 1.88v5.92c0 .86-.56 1.62-1.36 1.9l-3.82 1.28 1.8 3.62c.38.76.24 1.7-.38 2.3l-4.18 4.2c-.6.62-1.54.76-2.32.38l-3.58-1.8-1.28 3.84C24.62 39.46 23.86 40 23 40zm-4.48-4h3.04l.84-2.48a3.98 3.98 0 012.26-2.42 4.01 4.01 0 013.32.12l2.28 1.14 2.14-2.16-1.16-2.34a4.01 4.01 0 01-.12-3.32c.44-1.08 1.32-1.9 2.42-2.26l2.46-.8v-3.04l-2.48-.84a3.98 3.98 0 01-2.42-2.26 4.01 4.01 0 01.12-3.32l1.14-2.3L30.2 7.6l-2.34 1.16a4.01 4.01 0 01-3.32.12 3.975 3.975 0 01-2.26-2.42L21.48 4h-3.04l-.84 2.48a3.98 3.98 0 01-2.26 2.42c-1.08.44-2.28.4-3.32-.12L9.74 7.64 7.6 9.8l1.16 2.34c.52 1.04.56 2.24.12 3.32a3.975 3.975 0 01-2.42 2.26l-2.46.8v3.04l2.48.82c1.1.36 1.98 1.2 2.42 2.26.44 1.08.4 2.28-.12 3.32l-1.14 2.28L9.8 32.4l2.34-1.16a4.01 4.01 0 013.32-.12c1.08.44 1.9 1.32 2.26 2.42l.8 2.46z" />
	</symbol>
	<symbol viewBox="0 0 20 20" id="gift">
		<path d="M18 5h-1.75c.46-.52.75-1.17.75-2 0-1.74-1.26-3-3-3-1.97 0-3.23 1.25-4 2.64C9.23 1.25 7.97 0 6 0 4.26 0 3 1.26 3 3c0 .83.3 1.48.75 2H2C.9 5 0 5.9 0 7v2c0 1.1.9 2 2 2v6c0 1.65 1.35 3 3 3h10c1.65 0 3-1.35 3-3v-6c1.1 0 2-.9 2-2V7c0-1.1-.9-2-2-2zm-4-3c.93 0 1 .77 1 1 0 1.19-2.1 1.75-3.79 1.93C11.57 3.71 12.43 2 14 2zM6 2c1.57 0 2.43 1.71 2.79 2.93C7.1 4.75 5 4.19 5 3c0-.23.07-1 1-1zM2 7h7v2H2V7zm2 10v-6h5v7H5c-.55 0-1-.45-1-1zm12 0c0 .55-.45 1-1 1h-4v-7h5v6zm-5-8V7h7v2h-7z" />
	</symbol>
	<symbol viewBox="0 0 32 14" id="gpay">
		<path d="M15.017 10.527H13.87V1.462h3.038a2.743 2.743 0 011.967.785 2.557 2.557 0 01.822 1.913c.007.362-.062.721-.204 1.053a2.51 2.51 0 01-.618.871c-.531.515-1.187.772-1.967.772h-1.892v3.67zm0-4.784h1.92a1.492 1.492 0 001.133-.47 1.546 1.546 0 00.46-1.107 1.568 1.568 0 00-.46-1.107 1.493 1.493 0 00-1.133-.481h-1.92v3.165zm7.32-1.621c.846 0 1.515.23 2.005.69.49.46.734 1.091.734 1.893v3.822H23.98v-.86h-.05c-.474.708-1.105 1.062-1.892 1.062-.672 0-1.234-.202-1.687-.607a1.937 1.937 0 01-.508-.682 1.968 1.968 0 01-.17-.837c0-.642.238-1.152.715-1.531.477-.38 1.114-.569 1.911-.57.68 0 1.24.127 1.68.38v-.266a1.345 1.345 0 00-.473-1.031 1.607 1.607 0 00-1.105-.425c-.64 0-1.146.275-1.519.823l-1.009-.645c.555-.81 1.376-1.216 2.464-1.216zm-1.482 4.506a.945.945 0 00.38.76c.253.202.568.31.89.304a1.814 1.814 0 001.288-.544c.38-.363.57-.79.57-1.278-.358-.29-.856-.434-1.495-.434-.465 0-.853.114-1.163.342-.314.231-.47.513-.47.85zm10.51-4.303l-3.825 8.936h-1.182l1.419-3.127-2.515-5.809h1.245l1.818 4.455h.025l1.767-4.455h1.248zm-20.977 1.74c0-.355-.029-.709-.088-1.059H5.47v2.006h2.766c-.056.32-.176.626-.352.898a2.392 2.392 0 01-.67.684v1.302h1.65c.967-.906 1.524-2.246 1.524-3.83z" />
		<path d="M5.47 11.154c1.382 0 2.546-.461 3.394-1.257l-1.65-1.302c-.46.317-1.052.498-1.744.498-1.336 0-2.47-.916-2.876-2.15h-1.7v1.342a5.177 5.177 0 001.887 2.094 5.06 5.06 0 002.689.775z" />
		<path d="M2.594 6.943a3.17 3.17 0 010-1.993V3.608h-1.7a5.278 5.278 0 000 4.677l1.7-1.342z" />
		<path d="M5.47 2.8a2.756 2.756 0 011.965.782l1.462-1.487A4.877 4.877 0 005.47.74c-.95 0-1.88.268-2.689.775A5.176 5.176 0 00.893 3.608L2.594 4.95C3 3.716 4.134 2.8 5.47 2.8z" />
	</symbol>
	<symbol viewBox="0 0 18 19" id="insta">
		<path d="M5 .26a5 5 0 00-5 5v8a5 5 0 005 5h8a5 5 0 005-5v-8a5 5 0 00-5-5H5zm10 2a1 1 0 110 2 1 1 0 010-2zm-6 2a5 5 0 11-.001 10A5 5 0 019 4.26zm0 2a3 3 0 100 6 3 3 0 000-6z" />
	</symbol>
	<symbol viewBox="0 0 18 19" id="ldin">
		<path fill-rule="evenodd" clip-rule="evenodd" d="M2.25.26h13.5A2.25 2.25 0 0118 2.51v13.5a2.25 2.25 0 01-2.25 2.25H2.25A2.25 2.25 0 010 16.01V2.51A2.25 2.25 0 012.25.26zm1.424 1.907c-1.031 0-1.705.678-1.705 1.567 0 .87.653 1.567 1.665 1.567h.02c1.051 0 1.705-.697 1.705-1.567-.02-.889-.654-1.567-1.685-1.567zM5.161 6.54H2.146v9.069h3.015V6.54zm4.683 1.284c.4-.618 1.117-1.497 2.716-1.497 1.984 0 3.471 1.296 3.471 4.081v5.201h-3.014v-4.852c0-1.219-.437-2.05-1.527-2.05-.833 0-1.33.56-1.547 1.101-.08.194-.1.465-.1.736v5.065H6.83s.04-8.218 0-9.069h3.014v1.284z" />
	</symbol>
	<symbol viewBox="0 0 16 20" id="list">
		<path d="M15.41 6L10 .59C9.62.21 9.12 0 8.59 0H3C1.35 0 0 1.35 0 3v14c0 1.65 1.35 3 3 3h10c1.65 0 3-1.35 3-3V7.41c0-.53-.21-1.03-.59-1.41zm-2.82 0H11c-.55 0-1-.45-1-1V3.41L12.59 6zM14 17c0 .55-.45 1-1 1H3c-.55 0-1-.45-1-1V3c0-.55.45-1 1-1h5v3c0 1.65 1.35 3 3 3h3v9zM6 8H5c-.55 0-1-.45-1-1s.45-1 1-1h1c.55 0 1 .45 1 1s-.45 1-1 1zm5 4H5c-.55 0-1-.45-1-1s.45-1 1-1h6c.55 0 1 .45 1 1s-.45 1-1 1zm-2 4H5c-.55 0-1-.45-1-1s.45-1 1-1h4c.55 0 1 .45 1 1s-.45 1-1 1z" />
	</symbol>
	<symbol viewBox="0 0 24 24" id="lock">
		<path d="M17 9V7c0-2.76-2.24-5-5-5S7 4.24 7 7v2c-1.65 0-3 1.35-3 3v7c0 1.65 1.35 3 3 3h10c1.65 0 3-1.35 3-3v-7c0-1.65-1.35-3-3-3zM9 7c0-1.65 1.35-3 3-3s3 1.35 3 3v2H9V7zm9 12c0 .55-.45 1-1 1H7c-.55 0-1-.45-1-1v-7c0-.55.45-1 1-1h10c.55 0 1 .45 1 1v7z" />
	</symbol>
	<symbol viewBox="0 0 108 24" id="logo">
		<path fill-rule="evenodd" d="M1.075.5a.575.575 0 00-.575.575v3.452c0 .318.258.575.575.575h13.933c.264 0 .494-.18.558-.436l.863-3.451A.575.575 0 0015.87.5H1.075zm3.452 23.01H1.075a.575.575 0 01-.575-.575V10.28c0-.318.258-.576.575-.576H13.57c.374 0 .649.352.558.715l-.863 3.452a.575.575 0 01-.558.435h-7.03a.575.575 0 00-.575.576v8.054a.575.575 0 01-.575.575zM25.237.5c.317 0 .575.258.575.575v21.86a.575.575 0 01-.575.576h-3.452a.575.575 0 01-.575-.575V1.076c0-.318.257-.576.575-.576h3.452z" clip-rule="evenodd" />
		<path d="M48.248.5h3.451c.318 0 .576.258.576.575v21.86a.575.575 0 01-.576.576h-2.273a1.15 1.15 0 01-.893-.425L37.829 9.91a.288.288 0 00-.511.182v12.843a.575.575 0 01-.575.575H33.29a.575.575 0 01-.575-.575V1.076c0-.318.257-.576.575-.576h2.273c.346 0 .674.156.893.425L47.162 14.1c.17.21.51.09.51-.181V1.075c0-.317.258-.575.576-.575zm31.639 11.505c0 6.355-5.151 11.506-11.505 11.506-6.355 0-11.506-5.151-11.506-11.506C56.876 5.651 62.028.5 68.382.5s11.505 5.151 11.505 11.505zm-18.433 0a6.928 6.928 0 1013.856 0 6.928 6.928 0 00-13.856 0zm45.471 11.505h-3.452a.575.575 0 01-.575-.575v-12.42a.288.288 0 00-.517-.174l-5.699 7.52a.863.863 0 01-1.375 0l-5.699-7.52a.288.288 0 00-.517.174v12.422a.575.575 0 01-.575.575h-3.452a.575.575 0 01-.575-.575V1.087c0-.317.256-.574.573-.575l2.574-.01a.571.571 0 01.461.227l7.668 10.118a.288.288 0 00.459 0L103.876.75a.575.575 0 01.458-.228h2.591c.317 0 .575.258.575.575v21.838a.575.575 0 01-.575.575z" />
	</symbol>
	<symbol viewBox="0 0 40 41" id="loupe">
		<path d="M39.42 36.58l-7.36-7.36C34.52 26.14 36 22.24 36 18c0-9.92-8.08-18-18-18S0 8.08 0 18s8.08 18 18 18c4.24 0 8.14-1.48 11.22-3.94l7.36 7.36c.78.78 2.04.78 2.82 0 .78-.78.8-2.06.02-2.84zM18 32c-7.72 0-14-6.28-14-14S10.28 4 18 4s14 6.28 14 14-6.28 14-14 14z" />
	</symbol>
	<symbol viewBox="0 0 24 24" id="multibanking">
		<path fill-rule="evenodd" clip-rule="evenodd" d="M12.556 4.1H4.11v13.65h8.445V4.1zM4.11 2C2.945 2 2 2.94 2 4.1v13.65c0 1.16.945 2.1 2.111 2.1h8.445c1.166 0 2.11-.94 2.11-2.1V4.1c0-1.16-.944-2.1-2.11-2.1H4.11z" />
		<path fill-rule="evenodd" clip-rule="evenodd" d="M9.766 22.89a2.112 2.112 0 01-1.392-1.58 2.098 2.098 0 01-.04-.41v-2.953c1.165 0 2.11.94 2.11 2.1v.853H11.5c1.166 0 2.111.94 2.111 2.1h-3.167a2.127 2.127 0 01-.678-.11zM21 11.121c-1.166 0-2.111.94-2.111 2.1v1.706c0 1.16.945 2.1 2.111 2.1v-5.906zm-12.667-.919c1.166 0 2.111-.94 2.111-2.1V7.25H11.5c1.166 0 2.111-.94 2.111-2.1h-3.167a2.133 2.133 0 00-.678.11 2.111 2.111 0 00-1.392 1.58 2.1 2.1 0 00-.04.41v2.953zm0 .919c1.166 0 2.111.94 2.111 2.1v1.706c0 1.16-.945 2.1-2.11 2.1v-5.906zm7.39-5.972c0 1.16.944 2.1 2.11 2.1h1.056v.853c0 1.16.945 2.1 2.111 2.1V7.25a2.097 2.097 0 00-2.111-2.1h-3.167zM21 17.947c-1.166 0-2.111.94-2.111 2.1v.853h-1.056c-1.166 0-2.11.94-2.11 2.1h3.166a2.126 2.126 0 00.679-.11 2.112 2.112 0 001.392-1.58c.026-.133.04-.27.04-.41v-2.953z" />
	</symbol>
	<symbol viewBox="0 0 20 20" id="receipt">
		<path d="M19 10h-3V1c0-.35-.18-.67-.47-.85-.3-.18-.66-.2-.97-.04l-3.48 1.74L8.56.17c-.34-.22-.77-.22-1.11 0L4.93 1.85 1.45.11C1.14-.05.77-.03.47.15.18.33 0 .65 0 1v16c0 1.65 1.35 3 3 3h14c1.65 0 3-1.35 3-3v-6c0-.55-.45-1-1-1zM2 17V2.62L4.55 3.9c.32.16.7.14 1-.06L8 2.2l2.45 1.63c.3.2.68.22 1 .06L14 2.62V17c0 .35.07.69.18 1H3c-.55 0-1-.45-1-1zm16 0c0 .55-.45 1-1 1s-1-.45-1-1v-5h2v5zM9 8H7c-.55 0-1-.45-1-1s.45-1 1-1h2c.55 0 1 .45 1 1s-.45 1-1 1zm2 4H5c-.55 0-1-.45-1-1s.45-1 1-1h6c.55 0 1 .45 1 1s-.45 1-1 1zm0 4H5c-.55 0-1-.45-1-1s.45-1 1-1h6c.55 0 1 .45 1 1s-.45 1-1 1z" />
	</symbol>
	<symbol viewBox="0 0 24 24" id="rocket">
		<path d="M21 2h-4c-2.76 0-4.98 1.24-6.95 4.01-.01 0-.03-.01-.05-.01H6.35c-1.23 0-2.32.74-2.78 1.89l-1.5 3.74c-.12.31-.09.66.1.93s.5.44.83.44h3.64c-.2.54-.39 1.1-.59 1.68-.12.36-.03.76.24 1.02l2 2c.19.2.45.3.71.3.19 0 .28-.01 2-.64V21a.999.999 0 001.37.93l3.74-1.5A2.985 2.985 0 0018 17.64V14c0-.02-.01-.04-.01-.05C20.76 11.98 22 9.76 22 7V3c0-.55-.45-1-1-1zM4.48 11l.95-2.37c.15-.38.51-.63.92-.63h2.48c-.48.89-.95 1.89-1.41 3H4.48zM16 17.65a1 1 0 01-.63.93l-2.37.94v-2.94c1.11-.46 2.11-.93 3-1.41v2.48zM20 7c0 2.69-1.32 5.62-10.73 8.85l-1.12-1.12C11.38 5.32 14.31 4 17 4h3v3zm-3-1c.55 0 1 .45 1 1s-.45 1-1 1-1-.45-1-1 .45-1 1-1z" />
	</symbol>
	<symbol viewBox="0 0 14 20" id="telephone">
		<path fill-rule="evenodd" clip-rule="evenodd" d="M2 2h10v16H2V2zM0 2a2 2 0 012-2h10a2 2 0 012 2v16a2 2 0 01-2 2H2a2 2 0 01-2-2V2zm7 13a1 1 0 100 2 1 1 0 000-2z" />
	</symbol>
	<symbol viewBox="0 0 36 40" id="triangle">
		<path d="M34.64 18.006c1.332.77 1.333 2.695 0 3.465L3.931 39.199c-1.333.77-3-.192-3-1.732V2.01c0-1.54 1.667-2.502 3-1.733l30.707 17.73z" />
	</symbol>
</svg>