<svg width="48" height="48" fill="none" xmlns="http://www.w3.org/2000/svg"><path d="M40 4H8c-3.3 0-6 2.7-6 6v8c0 3.3 2.7 6 6 6h2v14c0 3.3 2.7 6 6 6h16c3.3 0 6-2.7 6-6V24h2c3.3 0 6-2.7 6-6v-8c0-3.3-2.7-6-6-6zm-6 34c0 1.1-.9 2-2 2H16c-1.1 0-2-.9-2-2V16h20v22zm8-20c0 1.1-.9 2-2 2h-2v-4c1.1 0 2-.9 2-2s-.9-2-2-2H10c-1.1 0-2 .9-2 2s.9 2 2 2v4H8c-1.1 0-2-.9-2-2v-8c0-1.1.9-2 2-2h32c1.1 0 2 .9 2 2v8zm-18 2c-4.42 0-8 3.58-8 8s3.58 8 8 8 8-3.58 8-8-3.58-8-8-8zm0 12c-2.2 0-4-1.8-4-4s1.8-4 4-4 4 1.8 4 4-1.8 4-4 4z" fill="#fff"/></svg>