<?xml version="1.0" standalone="no"?>
<!DOCTYPE svg PUBLIC "-//W3C//DTD SVG 20010904//EN"
 "http://www.w3.org/TR/2001/REC-SVG-20010904/DTD/svg10.dtd">
<svg version="1.0" xmlns="http://www.w3.org/2000/svg"
 width="700.000000pt" height="700.000000pt" viewBox="0 0 700.000000 700.000000"
 preserveAspectRatio="xMidYMid meet">
<metadata>
Created by potrace 1.14, written by Peter Selinger 2001-2017
</metadata>
<g transform="translate(0.000000,700.000000) scale(0.100000,-0.100000)"
fill="#000000" stroke="none">
<path d="M1522 6340 c-18 -5 -18 -25 -18 -565 l1 -560 1844 0 1845 0 48 190
c27 105 50 199 53 210 2 11 9 40 16 65 6 25 12 52 14 60 2 8 36 145 76 303 39
158 69 291 65 295 -8 7 -3915 10 -3944 2z"/>
<path d="M1511 4065 c-6 -8 -8 -3333 -2 -3382 1 -10 121 -13 565 -13 l565 0 0
1125 c0 619 2 1129 6 1135 4 7 332 10 987 10 540 0 985 3 990 8 5 5 10 17 13
28 2 10 43 174 90 364 48 190 88 350 89 355 1 6 5 19 9 30 3 11 8 31 11 45 6
30 6 32 44 180 16 63 27 117 25 120 -9 10 -3385 5 -3392 -5z"/>
</g>
</svg>
