<svg width="55" height="16" fill="none" xmlns="http://www.w3.org/2000/svg"><path d="M54.354 8.354a.5.5 0 000-.708l-3.182-3.182a.5.5 0 10-.707.708L53.293 8l-2.828 2.828a.5.5 0 10.707.708l3.182-3.182zM1.929 8.5a.5.5 0 000-1v1zm3.857-1a.5.5 0 000 1v-1zm3.857 1a.5.5 0 100-1v1zm3.857-1a.5.5 0 000 1v-1zm3.857 1a.5.5 0 100-1v1zm3.857-1a.5.5 0 100 1v-1zm3.857 1a.5.5 0 100-1v1zm3.858-1a.5.5 0 100 1v-1zm3.857 1a.5.5 0 100-1v1zm3.857-1a.5.5 0 100 1v-1zm3.857 1a.5.5 0 000-1v1zm3.857-1a.5.5 0 000 1v-1zm3.857 1a.5.5 0 000-1v1zm3.857-1a.5.5 0 000 1v-1zM0 8.5h1.929v-1H0v1zm5.786 0h3.857v-1H5.786v1zm7.714 0h3.857v-1H13.5v1zm7.714 0h3.857v-1h-3.857v1zm7.715 0h3.857v-1h-3.857v1zm7.714 0H40.5v-1h-3.857v1zm7.714 0h3.857v-1h-3.857v1zm7.714 0H54v-1h-1.929v1zm2.636.207a1 1 0 000-1.414L48.343.929a1 1 0 00-1.414 1.414L52.586 8l-5.657 5.657a1 1 0 001.414 1.414l6.364-6.364zM1.93 9a1 1 0 100-2v2zm3.857-2a1 1 0 000 2V7zm3.857 2a1 1 0 000-2v2zM13.5 7a1 1 0 100 2V7zm3.857 2a1 1 0 100-2v2zm3.857-2a1 1 0 100 2V7zm3.857 2a1 1 0 100-2v2zm3.858-2a1 1 0 100 2V7zm3.857 2a1 1 0 100-2v2zm3.857-2a1 1 0 100 2V7zM40.5 9a1 1 0 100-2v2zm3.857-2a1 1 0 000 2V7zm3.857 2a1 1 0 100-2v2zm3.857-2a1 1 0 100 2V7zM0 9h1.929V7H0v2zm5.786 0h3.857V7H5.786v2zM13.5 9h3.857V7H13.5v2zm7.714 0h3.857V7h-3.857v2zm7.715 0h3.857V7h-3.857v2zm7.714 0H40.5V7h-3.857v2zm7.714 0h3.857V7h-3.857v2zm7.714 0H54V7h-1.929v2z" fill="#6C789D"/></svg>